<svg width="136" height="40" viewBox="0 0 136 40" fill="none" xmlns="http://www.w3.org/2000/svg">
<rect width="40" height="40" rx="4" fill="#042C65"/>
<rect x="48" width="40" height="40" rx="4" fill="#042C65"/>
<rect x="96" width="40" height="40" rx="4" fill="#042C65"/>
<path d="M21.4008 21.3816H23.4008L24.2008 18.1816H21.4008V16.5816C21.4008 15.7576 21.4008 14.9816 23.0008 14.9816H24.2008V12.2936C23.94 12.2592 22.9552 12.1816 21.9152 12.1816C19.7432 12.1816 18.2008 13.5072 18.2008 15.9416V18.1816H15.8008V21.3816H18.2008V28.1816H21.4008V21.3816Z" fill="white"/>
<path d="M66.4 22.582L70.552 20.182L66.4 17.782V22.582ZM75.648 16.318C75.752 16.694 75.824 17.198 75.872 17.838C75.928 18.478 75.952 19.03 75.952 19.51L76 20.182C76 21.934 75.872 23.222 75.648 24.046C75.448 24.766 74.984 25.23 74.264 25.43C73.888 25.534 73.2 25.606 72.144 25.654C71.104 25.71 70.152 25.734 69.272 25.734L68 25.782C64.648 25.782 62.56 25.654 61.736 25.43C61.016 25.23 60.552 24.766 60.352 24.046C60.248 23.67 60.176 23.166 60.128 22.526C60.072 21.886 60.048 21.334 60.048 20.854L60 20.182C60 18.43 60.128 17.142 60.352 16.318C60.552 15.598 61.016 15.134 61.736 14.934C62.112 14.83 62.8 14.758 63.856 14.71C64.896 14.654 65.848 14.63 66.728 14.63L68 14.582C71.352 14.582 73.44 14.71 74.264 14.934C74.984 15.134 75.448 15.598 75.648 16.318Z" fill="white"/>
<path fill-rule="evenodd" clip-rule="evenodd" d="M108 16.6261C108 15.4473 108.468 14.3169 109.302 13.4834C110.135 12.6499 111.266 12.1816 112.444 12.1816H119.556C120.734 12.1816 121.865 12.6499 122.698 13.4834C123.532 14.3169 124 15.4473 124 16.6261V23.7372C124 24.9159 123.532 26.0464 122.698 26.8799C121.865 27.7134 120.734 28.1816 119.556 28.1816H112.444C111.266 28.1816 110.135 27.7134 109.302 26.8799C108.468 26.0464 108 24.9159 108 23.7372V16.6261ZM112.444 13.9594C111.737 13.9594 111.059 14.2404 110.559 14.7405C110.059 15.2406 109.778 15.9188 109.778 16.6261V23.7372C109.778 24.4444 110.059 25.1227 110.559 25.6228C111.059 26.1229 111.737 26.4039 112.444 26.4039H119.556C120.263 26.4039 120.941 26.1229 121.441 25.6228C121.941 25.1227 122.222 24.4444 122.222 23.7372V16.6261C122.222 15.9188 121.941 15.2406 121.441 14.7405C120.941 14.2404 120.263 13.9594 119.556 13.9594H112.444ZM119.197 15.9274C119.197 15.6917 119.291 15.4656 119.458 15.2989C119.624 15.1322 119.85 15.0385 120.086 15.0385H120.095C120.331 15.0385 120.557 15.1322 120.724 15.2989C120.89 15.4656 120.984 15.6917 120.984 15.9274C120.984 16.1632 120.89 16.3893 120.724 16.556C120.557 16.7227 120.331 16.8163 120.095 16.8163H120.086C119.85 16.8163 119.624 16.7227 119.458 16.556C119.291 16.3893 119.197 16.1632 119.197 15.9274ZM116 17.515C115.293 17.515 114.614 17.7959 114.114 18.296C113.614 18.7961 113.333 19.4744 113.333 20.1816C113.333 20.8889 113.614 21.5672 114.114 22.0673C114.614 22.5674 115.293 22.8483 116 22.8483C116.707 22.8483 117.386 22.5674 117.886 22.0673C118.386 21.5672 118.667 20.8889 118.667 20.1816C118.667 19.4744 118.386 18.7961 117.886 18.296C117.386 17.7959 116.707 17.515 116 17.515ZM111.556 20.1816C111.556 19.0029 112.024 17.8724 112.857 17.0389C113.691 16.2054 114.821 15.7372 116 15.7372C117.179 15.7372 118.309 16.2054 119.143 17.0389C119.976 17.8724 120.444 19.0029 120.444 20.1816C120.444 21.3604 119.976 22.4908 119.143 23.3243C118.309 24.1578 117.179 24.6261 116 24.6261C114.821 24.6261 113.691 24.1578 112.857 23.3243C112.024 22.4908 111.556 21.3604 111.556 20.1816Z" fill="white"/>
</svg>
