<svg width="32" height="29" viewBox="0 0 32 29" fill="none" xmlns="http://www.w3.org/2000/svg">
<path d="M22.1103 24.8838C20.5666 25.3013 18.7877 25.5117 16.7722 25.5117C14.5034 25.5117 12.4616 25.2355 10.6466 24.6832C8.83161 24.1308 7.49176 23.4107 6.63028 22.5163C5.76718 21.622 5.21808 20.4778 4.98299 19.0837L0 19.3895C0.0723248 21.2505 0.802277 22.9208 2.19145 24.3971C3.58064 25.8734 5.49591 26.9815 7.93727 27.7147C10.3786 28.4512 13.4053 28.8195 17.0188 28.8195C19.8679 28.8195 22.4325 28.4545 24.7111 27.7246C26.988 26.9946 28.7356 25.9754 29.9522 24.6634C31.1671 23.3515 31.7771 21.9541 31.7771 20.4712C31.7771 18.9785 31.223 17.6567 30.115 16.5092C29.0085 15.3616 27.2922 14.4147 24.9692 13.6683C23.3712 13.1587 20.4252 12.5668 16.1326 11.8895C11.8401 11.2122 9.18507 10.548 8.16908 9.90351C7.13334 9.25578 6.61713 8.43378 6.61713 7.43093C6.61713 6.28012 7.34707 5.29374 8.8086 4.47499C10.2701 3.65959 12.598 3.24853 15.7923 3.24853C18.8601 3.24853 21.1798 3.69905 22.7498 4.59995C24.3198 5.49758 25.2405 6.82923 25.5134 8.59159L30.5786 8.32529C30.4865 6.69114 29.8338 5.22797 28.6173 3.93249C27.4007 2.64031 25.663 1.66048 23.4025 0.996289C21.1436 0.332095 18.5329 0 15.5753 0C12.8874 0 10.446 0.315667 8.24963 0.950261C6.05323 1.58156 4.38292 2.51205 3.24033 3.73521C2.09611 4.95834 1.52399 6.27356 1.52399 7.67753C1.52399 8.95985 1.99089 10.114 2.92634 11.1497C3.86178 12.1821 5.2822 13.0469 7.1876 13.7439C8.65899 14.2864 11.2269 14.8685 14.8947 15.4833C18.5609 16.0981 20.9299 16.5486 22.0018 16.8413C23.6704 17.2851 24.8689 17.8342 25.5956 18.4852C26.3206 19.1396 26.6839 19.9024 26.6839 20.777C26.6839 21.6384 26.3074 22.4341 25.5545 23.1641C24.8015 23.8907 23.6524 24.4662 22.1103 24.8838Z" fill="white"/>
</svg>
