<svg width="32" height="29" viewBox="0 0 32 29" fill="none" xmlns="http://www.w3.org/2000/svg">
<path d="M21.987 24.8837C20.4531 25.3013 18.6842 25.5117 16.6801 25.5117C14.4229 25.5117 12.3925 25.2355 10.5874 24.6832C8.78229 24.1308 7.45065 23.4107 6.59412 22.5164C5.73595 21.622 5.19014 20.4778 4.95505 19.0837L0 19.3894C0.0723308 21.2505 0.798986 22.9208 2.17994 24.3971C3.56091 25.8734 5.46633 26.9815 7.89289 27.7147C10.3211 28.4512 13.3313 28.8195 16.9234 28.8195C19.7577 28.8195 22.3076 28.4545 24.573 27.7246C26.8384 26.9946 28.5762 25.9753 29.7862 24.6634C30.9945 23.3515 31.6011 21.9541 31.6011 20.4712C31.6011 18.9785 31.0487 17.6567 29.9489 16.5091C28.8474 15.3616 27.1409 14.4147 24.8311 13.6683C23.2414 13.1586 20.3134 12.5668 16.0439 11.8895C11.7744 11.2121 9.13411 10.5479 8.12304 9.90348C7.09554 9.25575 6.58096 8.43374 6.58096 7.43089C6.58096 6.28009 7.30761 5.29366 8.76092 4.47496C10.2126 3.65951 12.529 3.24853 15.7052 3.24853C18.7565 3.24853 21.063 3.69897 22.6248 4.59991C24.185 5.49754 25.1024 6.82923 25.372 8.59159L30.4092 8.32526C30.3188 6.69111 29.6678 5.22794 28.4594 3.93249C27.2494 2.64026 25.5216 1.66045 23.2742 0.996289C21.0269 0.332095 18.431 0 15.4882 0C12.8167 0 10.3885 0.315666 8.20524 0.950225C6.02034 1.58156 4.3599 2.51205 3.22224 3.73518C2.08623 4.95834 1.51741 6.27356 1.51741 7.67753C1.51741 8.95985 1.98102 10.114 2.91152 11.1497C3.84039 12.1821 5.25424 13.0469 7.14978 13.7439C8.61131 14.2864 11.1661 14.8684 14.8125 15.4833C18.4589 16.0982 20.8148 16.5486 21.8801 16.8412C23.5405 17.2851 24.7308 17.8342 25.4542 18.4852C26.1759 19.1396 26.5376 19.9024 26.5376 20.777C26.5376 21.6384 26.1611 22.4342 25.4131 23.1641C24.6634 23.8908 23.5225 24.4662 21.987 24.8837Z" fill="white"/>
</svg>
