<svg width="36" height="29" viewBox="0 0 36 29" fill="none" xmlns="http://www.w3.org/2000/svg">
<path d="M9.12097 1.68348C6.20285 2.80468 3.9522 4.44542 2.37231 6.60564C0.790769 8.76751 0 11.2993 0 14.201C0 16.8626 0.700345 19.3533 2.10105 21.6713C3.50009 23.991 5.5436 25.7633 8.22663 26.9864C10.9097 28.2096 14.3933 28.8211 18.6759 28.8211C22.8139 28.8211 26.3157 28.0254 29.1812 26.434C32.045 24.8426 34.0277 22.5344 35.1308 19.5045L29.8717 18.5724C29.1483 20.9184 27.7657 22.6857 25.7238 23.8759C23.682 25.0695 21.188 25.6646 18.2436 25.6646C15.8203 25.6646 13.5713 25.2273 11.4933 24.3527C9.41524 23.4781 7.88303 22.1563 6.89826 20.389C5.91351 18.6201 5.42195 16.5519 5.42195 14.1812C5.42195 12.3449 5.83623 10.5611 6.66811 8.82999C7.49833 7.10048 8.94012 5.7228 10.9918 4.6953C13.0419 3.66944 15.5951 3.15651 18.6496 3.15651C21.3064 3.15651 23.511 3.61847 25.2635 4.54405C27.016 5.46963 28.3542 6.94595 29.2749 8.97302L34.4535 8.11813C33.3866 5.54526 31.4976 3.54942 28.7883 2.12899C26.0773 0.710219 22.7334 0 18.7582 0C15.2515 6.07669e-06 12.0391 0.560621 9.12097 1.68348Z" fill="white"/>
</svg>
