<svg width="52" height="28" viewBox="0 0 52 28" fill="none" xmlns="http://www.w3.org/2000/svg">
<path d="M15.8943 27.8692L24.3149 6.63522C24.6766 5.73432 25.0646 4.64598 25.4805 3.36365C25.6054 3.77134 26.0214 4.85968 26.725 6.63522L35.093 27.8692H40.1566L51.0416 0H45.761L39.5335 17.9065C38.7213 20.1885 38.0621 22.2106 37.5574 23.973C36.9244 20.8921 35.8953 17.604 34.4699 14.1056L28.7833 0H22.4473L14.8931 18.8206C14.7122 19.2777 14.1155 20.994 13.106 23.973C12.6359 22.0823 12.0769 20.1818 11.4259 18.2682L5.38741 0H0L10.5332 27.8692H15.8943Z" fill="white"/>
</svg>
