<svg width="101" height="200" viewBox="0 0 101 200" fill="none" xmlns="http://www.w3.org/2000/svg">
<g clip-path="url(#clip0_227_1258)">
<rect x="2" y="41" width="97" height="157" fill="white"/>
<path d="M95.5206 39.6927H57.2992C56.0219 44.6159 54.6536 49.9926 53.1789 55.9244C40.6572 106.289 53.1789 123.294 53.1789 123.294C22.2921 124.716 3.75585 110.716 23.6834 68.446C28.6568 57.8967 34.2113 48.2081 39.6533 39.6927H5.4575C2.87053 39.6927 0.773438 41.7898 0.773438 44.3766V194.544C0.773438 197.131 2.87053 199.228 5.4575 199.228H95.5206C98.1075 199.228 100.205 197.131 100.205 194.544V44.3766C100.205 41.7898 98.1075 39.6927 95.5206 39.6927Z" fill="#042C65"/>
<path d="M67.5972 2.95222C67.5972 2.95222 54.0191 17.2119 39.6523 39.6927H57.2983C61.9855 21.6248 65.3702 10.0394 67.5972 2.95222Z" fill="#042C65"/>
<path d="M95.5201 38.9195H58.2913C63.1137 20.4144 66.4125 9.27727 68.3381 3.17932L69.3428 0L67.0421 2.41318C66.9062 2.55584 53.3851 16.8294 39.2483 38.9195H5.45739C2.4479 38.9195 0 41.3674 0 44.3769V194.544C0 197.553 2.4479 200 5.45739 200H95.5201C98.5288 200 100.977 197.553 100.977 194.544V44.3769C100.977 41.3674 98.5288 38.9195 95.5201 38.9195ZM65.8313 6.04464C63.8197 12.6411 60.8049 23.1218 56.6927 38.9195H56.6919H41.0814C51.4813 22.795 61.4488 10.9903 65.8313 6.04464ZM40.0976 40.4654H56.2935C55.094 45.127 53.8037 50.1932 52.4279 55.7378C45.6473 82.9991 46.23 100.521 48.0439 110.639C47.4158 110.595 46.8079 110.563 46.1887 110.524C45.5853 110.486 44.9764 110.445 44.3815 110.412C43.6145 110.369 42.8651 110.338 42.1123 110.304C41.5164 110.277 40.913 110.246 40.3263 110.225C39.5753 110.197 38.8442 110.182 38.1083 110.163C37.5459 110.149 36.9742 110.129 36.4207 110.12C35.6201 110.107 34.8424 110.107 34.0606 110.105C33.5971 110.104 33.1216 110.095 32.6647 110.098C31.4419 110.104 30.2421 110.124 29.0677 110.157C28.8414 110.164 28.627 110.177 28.4026 110.184C27.4556 110.215 26.5156 110.251 25.6011 110.3C25.1881 110.322 24.7939 110.354 24.3876 110.38C23.68 110.425 22.9692 110.469 22.2822 110.525C21.8397 110.561 21.4162 110.607 20.9823 110.648C20.4424 110.698 19.8907 110.743 19.3643 110.801C13.8254 101.722 15.5124 87.5876 24.3816 68.7759C28.842 59.3289 34.1331 49.8075 40.0976 40.4654ZM48.3491 112.215C49.4827 117.664 50.9698 120.969 51.8391 122.572C36.5622 123.063 25.7263 119.509 20.3489 112.263C20.6944 112.228 21.0391 112.192 21.3903 112.16C21.8574 112.118 22.3243 112.075 22.8016 112.038C23.3782 111.993 23.9682 111.955 24.5596 111.918C25.0671 111.886 25.5723 111.852 26.0906 111.826C26.6819 111.796 27.2885 111.775 27.8936 111.752C28.4318 111.732 28.9651 111.709 29.5141 111.695C30.1309 111.679 30.7652 111.673 31.3955 111.665C31.9542 111.657 32.5056 111.646 33.0746 111.644C33.7492 111.642 34.4434 111.651 35.1326 111.658C35.6771 111.663 36.2117 111.662 36.7653 111.672C37.761 111.691 38.7798 111.722 39.8044 111.757C40.2349 111.772 40.665 111.786 41.1005 111.804C42.2309 111.849 43.3723 111.901 44.5361 111.967C44.9845 111.992 45.4476 112.026 45.9009 112.054C46.7112 112.104 47.5232 112.156 48.3491 112.215ZM1.54588 44.3769C1.54588 42.2204 3.30085 40.4654 5.45739 40.4654H38.2576H38.2591C32.4756 49.595 27.3398 58.8915 22.9837 68.1162C14.0674 87.0262 12.3128 101.43 17.7135 110.989L17.6501 110.996L17.6618 111.015C11.0551 111.865 5.64581 113.269 1.54588 115.199V44.3769ZM99.4309 194.544C99.4309 196.7 97.6766 198.454 95.5201 198.454H5.45739C3.30085 198.454 1.54588 196.7 1.54588 194.544V174.679H99.4309V194.544ZM99.4309 173.133H1.54588V150.47H99.4309V173.133ZM99.4309 148.924H1.54588V116.904C4.5265 115.408 9.82056 113.509 18.6035 112.447C23.7986 120.14 34.2889 124.162 49.1399 124.162C50.4631 124.162 51.8218 124.13 53.2137 124.066L54.6463 123.998L53.8024 122.838C53.7786 122.806 51.5476 119.66 49.9603 112.339C51.0861 112.428 52.2127 112.518 53.3865 112.624C67.2144 113.89 82.7061 117.668 99.4309 123.839V148.924ZM99.4309 122.198C82.785 116.097 67.3409 112.349 53.5269 111.085C52.1966 110.964 50.9148 110.86 49.6447 110.762C47.7989 100.867 47.1174 83.4914 53.9285 56.1107C55.3393 50.4238 56.664 45.2231 57.8898 40.4654H95.5201C97.6766 40.4654 99.4309 42.2204 99.4309 44.3769V122.198Z" fill="white"/>
<path d="M21.9075 167.286C21.1987 167.478 20.382 167.574 19.4566 167.574C18.4149 167.574 17.4774 167.447 16.6441 167.194C15.8108 166.94 15.1956 166.61 14.8001 166.199C14.4038 165.788 14.1517 165.263 14.0437 164.623L11.7559 164.763C11.7891 165.618 12.1242 166.385 12.762 167.062C13.3999 167.74 14.2792 168.249 15.4002 168.586C16.5211 168.924 17.9107 169.093 19.5698 169.093C20.8779 169.093 22.0555 168.925 23.1016 168.59C24.1471 168.255 24.9495 167.787 25.508 167.185C26.0658 166.582 26.3459 165.941 26.3459 165.26C26.3459 164.575 26.0915 163.968 25.5828 163.441C25.0748 162.914 24.2867 162.479 23.2201 162.136C22.4865 161.902 21.1338 161.631 19.163 161.32C17.1921 161.009 15.9731 160.704 15.5066 160.408C15.031 160.11 14.794 159.733 14.794 159.273C14.794 158.744 15.1292 158.291 15.8002 157.915C16.4713 157.541 17.5401 157.352 19.0067 157.352C20.4152 157.352 21.4803 157.559 22.2011 157.973C22.922 158.385 23.3447 158.996 23.47 159.806L25.7956 159.683C25.7533 158.933 25.4537 158.261 24.8951 157.666C24.3365 157.073 23.5387 156.623 22.5008 156.318C21.4637 156.013 20.265 155.861 18.9071 155.861C17.6729 155.861 16.552 156.006 15.5436 156.297C14.5351 156.587 13.7682 157.014 13.2436 157.576C12.7183 158.137 12.4556 158.741 12.4556 159.386C12.4556 159.975 12.67 160.504 13.0995 160.98C13.529 161.454 14.1811 161.851 15.056 162.171C15.7315 162.42 16.9106 162.687 18.5946 162.97C20.2778 163.252 21.3655 163.459 21.8577 163.593C22.6238 163.797 23.1741 164.049 23.5077 164.348C23.8406 164.648 24.0074 164.999 24.0074 165.4C24.0074 165.796 23.8346 166.161 23.4889 166.496C23.1431 166.83 22.6155 167.094 21.9075 167.286Z" fill="white"/>
<path d="M32.2331 164.999H39.8969L42.0345 168.874H44.7972L37.2965 156.078H34.6833L27.6445 168.874H30.22L32.2331 164.999ZM34.946 159.866C35.3709 159.058 35.7 158.243 35.9333 157.423C36.2171 158.115 36.6503 158.999 37.2338 160.076L39.1466 163.619H32.9328L34.946 159.866Z" fill="white"/>
<path d="M58.087 167.364H49.0608V156.078H46.6348V168.874H58.087V167.364Z" fill="white"/>
<path d="M74.7028 167.364H63.4506V163.009H73.5902V161.507H63.4506V157.588H74.2779V156.078H61.0254V168.874H74.7028V167.364Z" fill="white"/>
<path d="M87.3802 167.286C86.6714 167.478 85.8547 167.574 84.9292 167.574C83.8876 167.574 82.9501 167.447 82.1168 167.194C81.2834 166.94 80.6683 166.61 80.2727 166.199C79.8764 165.788 79.6243 165.263 79.5164 164.623L77.2285 164.763C77.2617 165.618 77.5969 166.385 78.2347 167.062C78.8725 167.74 79.7519 168.249 80.8728 168.586C81.9937 168.924 83.3834 169.093 85.0425 169.093C86.3506 169.093 87.5281 168.925 88.5743 168.59C89.6197 168.255 90.4221 167.787 90.9807 167.185C91.5385 166.582 91.8185 165.941 91.8185 165.26C91.8185 164.575 91.5642 163.968 91.0554 163.441C90.5474 162.914 89.7594 162.479 88.6928 162.136C87.9591 161.902 86.6065 161.631 84.6356 161.32C82.6648 161.009 81.4457 160.704 80.9792 160.408C80.5037 160.11 80.2667 159.733 80.2667 159.273C80.2667 158.744 80.6018 158.291 81.2729 157.915C81.9439 157.541 83.0127 157.352 84.4794 157.352C85.8879 157.352 86.9529 157.559 87.6738 157.973C88.3946 158.385 88.8173 158.996 88.9426 159.806L91.2683 159.683C91.226 158.933 90.9263 158.261 90.3678 157.666C89.8092 157.073 89.0113 156.623 87.9734 156.318C86.9363 156.013 85.7377 155.861 84.3797 155.861C83.1456 155.861 82.0247 156.006 81.0162 156.297C80.0078 156.587 79.2409 157.014 78.7163 157.576C78.1909 158.137 77.9282 158.741 77.9282 159.386C77.9282 159.975 78.1426 160.504 78.5721 160.98C79.0016 161.454 79.6538 161.851 80.5286 162.171C81.2042 162.42 82.3832 162.687 84.0672 162.97C85.7505 163.252 86.8382 163.459 87.3303 163.593C88.0965 163.797 88.6468 164.049 88.9804 164.348C89.3133 164.648 89.4801 164.999 89.4801 165.4C89.4801 165.796 89.3072 166.161 88.9615 166.496C88.6158 166.83 88.0882 167.094 87.3802 167.286Z" fill="white"/>
<path d="M23.6664 130.479L20.1316 134.241C19.3518 135.079 18.6883 135.833 18.1403 136.502C17.5682 135.78 16.95 135.059 16.2857 134.337L12.689 130.479H9.75195L16.7839 137.854V143.275H19.1986V137.854L26.4789 130.479H23.6664Z" fill="white"/>
<path d="M31.757 130.479L24.75 143.275H27.3134L29.3174 139.4H36.9465L39.0751 143.275H41.8257L34.3582 130.479H31.757ZM30.0142 138.021L32.0182 134.268C32.4409 133.458 32.7693 132.644 33.001 131.823C33.2833 132.516 33.7151 133.4 34.2955 134.477L36.1999 138.021H30.0142Z" fill="white"/>
<path d="M47.2444 131.034C45.9046 131.549 44.8712 132.302 44.1459 133.294C43.4197 134.286 43.0566 135.449 43.0566 136.781C43.0566 138.003 43.3782 139.147 44.0213 140.211C44.6637 141.276 45.6019 142.09 46.8338 142.651C48.0657 143.213 49.6651 143.494 51.6315 143.494C53.5314 143.494 55.1391 143.128 56.4548 142.398C57.7697 141.667 58.68 140.607 59.1865 139.216L56.7718 138.788C56.4397 139.865 55.8049 140.677 54.8674 141.223C53.9299 141.771 52.7848 142.045 51.4329 142.045C50.3203 142.045 49.2877 141.844 48.3336 141.442C47.3795 141.041 46.676 140.434 46.2239 139.622C45.7718 138.81 45.5461 137.861 45.5461 136.772C45.5461 135.929 45.7363 135.11 46.1182 134.315C46.4994 133.521 47.1614 132.888 48.1034 132.417C49.0447 131.946 50.2169 131.71 51.6194 131.71C52.8392 131.71 53.8514 131.922 54.656 132.347C55.4607 132.772 56.0751 133.45 56.4978 134.381L58.8755 133.988C58.3856 132.807 57.5183 131.891 56.2744 131.238C55.0297 130.587 53.4944 130.261 51.6692 130.261C50.0592 130.261 48.5842 130.518 47.2444 131.034Z" fill="white"/>
<path d="M64.651 137.244H74.1346V143.275H76.5493V130.479H74.1346V135.733H64.651V130.479H62.2363V143.275H64.651V137.244Z" fill="white"/>
<path d="M85.2106 143.275H87.6253V131.989H93.6617V130.479H79.1992V131.989H85.2106V143.275Z" fill="white"/>
<path d="M21.7391 194.103L25.6053 184.354C25.7713 183.94 25.9495 183.441 26.1404 182.852C26.1978 183.039 26.3888 183.539 26.7118 184.354L30.5539 194.103H32.8788L37.8765 181.307H35.452L32.5927 189.529C32.2198 190.577 31.9171 191.505 31.6854 192.314C31.3948 190.9 30.9223 189.39 30.2678 187.784L27.6569 181.307H24.7478L21.2794 189.949C21.1963 190.159 20.9223 190.947 20.4589 192.314C20.243 191.446 19.9864 190.574 19.6874 189.695L16.915 181.307H14.4414L19.2776 194.103H21.7391Z" fill="white"/>
<path d="M53.777 192.594H42.5882V188.238H52.6704V186.736H42.5882V182.817H53.3543V181.307H40.1758V194.103H53.777V192.594Z" fill="white"/>
<path d="M66.3841 192.515C65.6798 192.707 64.8676 192.803 63.9475 192.803C62.9111 192.803 61.9789 192.677 61.1501 192.423C60.3213 192.169 59.7099 191.839 59.3167 191.428C58.9226 191.018 58.672 190.492 58.5641 189.852L56.2891 189.993C56.3223 190.847 56.6559 191.614 57.29 192.292C57.924 192.97 58.7989 193.478 59.913 193.815C61.0279 194.153 62.4099 194.322 64.0592 194.322C65.3606 194.322 66.5313 194.155 67.5714 193.819C68.6116 193.484 69.4094 193.016 69.965 192.414C70.5198 191.812 70.7983 191.17 70.7983 190.489C70.7983 189.804 70.5447 189.197 70.0397 188.67C69.534 188.143 68.7505 187.708 67.6899 187.366C66.96 187.132 65.6157 186.86 63.6554 186.549C61.6951 186.238 60.4829 185.933 60.0186 185.637C59.5469 185.34 59.3106 184.962 59.3106 184.502C59.3106 183.974 59.6443 183.521 60.3115 183.145C60.978 182.77 62.0416 182.582 63.4999 182.582C64.9009 182.582 65.9599 182.788 66.677 183.202C67.3933 183.614 67.8145 184.226 67.9383 185.035L70.2511 184.913C70.2095 184.162 69.9106 183.49 69.3558 182.896C68.8003 182.302 68.007 181.852 66.9751 181.548C65.9433 181.243 64.7514 181.09 63.4003 181.09C62.1737 181.09 61.0588 181.235 60.0564 181.526C59.0532 181.816 58.2909 182.243 57.7685 182.805C57.2469 183.367 56.9858 183.971 56.9858 184.615C56.9858 185.204 57.1986 185.734 57.6258 186.209C58.0523 186.683 58.7015 187.08 59.5718 187.4C60.2428 187.65 61.4158 187.917 63.09 188.199C64.7642 188.481 65.8459 188.688 66.335 188.823C67.0974 189.026 67.6439 189.278 67.976 189.577C68.3074 189.878 68.4734 190.228 68.4734 190.63C68.4734 191.025 68.3006 191.39 67.9571 191.726C67.6129 192.059 67.0891 192.323 66.3841 192.515Z" fill="white"/>
<path d="M78.7273 194.103H81.139V182.817H87.1685V181.307H72.7227V182.817H78.7273V194.103Z" fill="white"/>
</g>
<defs>
<clipPath id="clip0_227_1258">
<rect width="100.977" height="200" fill="white"/>
</clipPath>
</defs>
</svg>
