<svg width="40" height="29" viewBox="0 0 40 29" fill="none" xmlns="http://www.w3.org/2000/svg">
<path d="M9.72727 29C7.90909 29 6.24242 28.5182 4.72727 27.5545C3.27273 26.5909 2.12121 25.2658 1.27273 23.5794C0.424242 21.893 0 19.9356 0 17.7072C0 15.7799 0.363636 13.9128 1.09091 12.1059C1.81818 10.2388 2.84848 8.52233 4.18182 6.95639C5.57576 5.33022 7.18182 3.91485 9 2.71028C10.8182 1.44548 12.7879 0.542056 14.9091 0L19.0909 5.05919C16.5455 6.1433 14.4848 7.49844 12.9091 9.12461C11.3939 10.6905 10.6364 12.0156 10.6364 13.0997C10.6364 13.7622 10.8485 14.4247 11.2727 15.0872C11.7576 15.6895 12.4545 16.2617 13.3636 16.8037C14.7576 17.8276 15.7273 18.8214 16.2727 19.785C16.8182 20.7487 17.0909 21.8027 17.0909 22.947C17.0909 24.8141 16.3939 26.2897 15 27.3738C13.6667 28.4579 11.9091 29 9.72727 29ZM30.6364 29C28.8182 29 27.1515 28.5182 25.6364 27.5545C24.1818 26.5909 23.0303 25.2658 22.1818 23.5794C21.3333 21.893 20.9091 19.9356 20.9091 17.7072C20.9091 15.7799 21.2727 13.9128 22 12.1059C22.7273 10.2388 23.7576 8.52233 25.0909 6.95639C26.4848 5.33022 28.0909 3.91485 29.9091 2.71028C31.7273 1.44548 33.697 0.542056 35.8182 0L40 5.05919C37.4545 6.1433 35.3939 7.49844 33.8182 9.12461C32.303 10.6905 31.5455 12.0156 31.5455 13.0997C31.5455 13.7622 31.7576 14.4247 32.1818 15.0872C32.6667 15.6895 33.3636 16.2617 34.2727 16.8037C35.6667 17.8276 36.6364 18.8214 37.1818 19.785C37.7273 20.7487 38 21.8027 38 22.947C38 24.8141 37.303 26.2897 35.9091 27.3738C34.5758 28.4579 32.8182 29 30.6364 29Z" fill="#042C65"/>
</svg>
